<svg preserveAspectRatio="none" overflow="visible" style="display: block;" width="15.9257" height="15.9257" viewBox="0 0 15.9257 15.9257" fill="none" xmlns="http://www.w3.org/2000/svg">
<g id="credit-card">
<path id="Vector" d="M1.32714 11.8705C1.32714 12.4811 1.82251 12.9765 2.43309 12.9765H13.4926C14.1032 12.9765 14.5985 12.4811 14.5985 11.8705V7.81539H1.32714V11.8705ZM5.75094 10.3038C5.75094 10.1517 5.87536 10.0273 6.02743 10.0273H9.16095C9.31302 10.0273 9.43744 10.1517 9.43744 10.3038V11.2254C9.43744 11.3775 9.31302 11.5019 9.16095 11.5019H6.02743C5.87536 11.5019 5.75094 11.3775 5.75094 11.2254V10.3038ZM2.80174 10.3038C2.80174 10.1517 2.92616 10.0273 3.07823 10.0273H4.73715C4.88922 10.0273 5.01364 10.1517 5.01364 10.3038V11.2254C5.01364 11.3775 4.88922 11.5019 4.73715 11.5019H3.07823C2.92616 11.5019 2.80174 11.3775 2.80174 11.2254V10.3038ZM14.5985 3.76024V4.86619H1.32714V3.76024C1.32714 3.14966 1.82251 2.65429 2.43309 2.65429H13.4926C14.1032 2.65429 14.5985 3.14966 14.5985 3.76024Z" fill="#596B7A"/>
</g>
</svg>
