<svg preserveAspectRatio="none" overflow="visible" style="display: block;" width="32" height="32" viewBox="0 0 32 32" fill="none" xmlns="http://www.w3.org/2000/svg">
<g id="RDS Symbol">
<path id="Symbol" d="M27.9909 16.5681C27.8442 17.1213 27.498 17.6234 26.9893 18.0174C25.5632 19.123 23.991 20.0991 22.3151 20.9169C20.64 21.7357 18.8543 22.3995 17.0094 22.8905C16.6813 22.9773 16.3425 23.0215 15.9995 23.0215C15.6574 23.0215 15.3177 22.9773 14.9905 22.8905C13.1447 22.3995 11.36 21.7357 9.6848 20.9169C8.00887 20.0991 6.43679 19.123 5.01059 18.0174C4.5011 17.6234 4.15496 17.1213 4.00907 16.5681H4.00814C3.91091 16.1962 3.91091 15.8038 4.00814 15.432H4.00907C4.15496 14.8779 4.5011 14.3766 5.01059 13.9826C6.43679 12.8771 8.00887 11.901 9.6848 11.0831C11.36 10.2644 13.1447 9.60064 14.9905 9.10869C15.3177 9.02272 15.6574 8.97845 15.9995 8.97845C16.3425 8.97845 16.6813 9.02272 17.0094 9.10869C18.8543 9.60064 20.64 10.2644 22.3151 11.0831C23.991 11.901 25.5632 12.8771 26.9893 13.9826C27.498 14.3766 27.8442 14.8779 27.9909 15.432C28.0891 15.8038 28.0891 16.1962 27.9909 16.5681ZM28.3512 6.69771C28.1871 6.07733 27.7939 5.51648 27.2391 5.08672C24.3348 2.83403 20.8791 1.1472 17.1198 0.145598C16.7555 0.0485315 16.3779 -7.7486e-07 15.9995 -7.7486e-07C15.6219 -7.7486e-07 15.2444 0.0485315 14.88 0.145598C11.1201 1.1472 7.66511 2.83403 4.76086 5.08672C4.206 5.51648 3.81203 6.07733 3.64877 6.69771C3.21595 8.33344 3 10.0006 3 11.667V12.7427V15.9996V19.2574V20.3323C3 21.9995 3.21595 23.6667 3.64877 25.3015C3.81203 25.9228 4.206 26.4828 4.76086 26.9134C7.66511 29.1652 11.1201 30.8528 14.88 31.8545C15.2444 31.9515 15.6219 32 15.9995 32C16.3779 32 16.7555 31.9515 17.1198 31.8545C20.8791 30.8528 24.3348 29.1652 27.2391 26.9134C27.7939 26.4828 28.1871 25.9228 28.3512 25.3015C28.7841 23.6667 29 21.9995 29 20.3323V19.2574V15.9996V12.7427V11.667C29 10.0006 28.7841 8.33344 28.3512 6.69771Z" fill="#00DBFF"/>
</g>
</svg>
