<svg preserveAspectRatio="none" overflow="visible" style="display: block;" width="80.3449" height="187.592" viewBox="0 0 80.3449 187.592" fill="none" xmlns="http://www.w3.org/2000/svg">
<g id="character-3">
<path id="Vector" d="M68.0014 55.0778L66.63 55.0132C66.63 55.0132 64.2893 71.9508 62.7385 73.2791C61.1876 74.6074 38.4341 70.206 37.1058 69.2439C37.0603 69.2041 37.0278 69.1516 37.0125 69.0931C36.0145 66.6017 39.9635 38.4991 41.4138 37.1924C42.8642 35.8856 47.2943 37.1924 47.2943 37.1924C47.2943 37.1924 56.8796 39.4397 62.3723 40.9332C63.6226 41.2287 64.849 41.6175 66.0413 42.0963C67.4773 42.9436 68.0014 55.0778 68.0014 55.0778Z" fill="#2F3033"/>
<path id="Vector_2" opacity="0.2" d="M62.9036 53.7997C62.9036 53.7997 60.5557 70.7373 59.012 72.0656C57.8058 73.0996 43.8335 70.6799 37.0125 69.0931C36.0145 66.6017 39.9635 38.4991 41.4138 37.1924C42.8642 35.8856 47.2943 37.1924 47.2943 37.1924C47.2943 37.1924 56.8796 39.4397 62.3723 40.9332C63.7436 42.0748 62.9036 53.7997 62.9036 53.7997Z" fill="white"/>
<path id="Vector_3" d="M22.9971 9.39851L21.8268 4.63099L27.1543 5.73671C27.1543 5.73671 27.9441 10.0447 25.7183 10.3678L22.9971 9.39851Z" fill="#CEE5FF"/>
<path id="Vector_4" d="M23.2915 0L27.5492 2.50581L27.1543 5.73681L21.8268 4.6311L23.2915 0Z" fill="#CEE5FF"/>
<path id="Vector_5" d="M41.7513 37.6806C40.9186 38.0852 40.0627 38.4401 39.188 38.7433C38.5561 38.5063 37.9387 38.2622 37.3284 38.0253C37.0196 37.896 36.7037 37.774 36.4022 37.6375C35.2821 37.178 34.1835 36.6826 33.0922 36.1585L31.7926 35.5266C31.4336 35.3399 31.0746 35.1604 30.7084 34.9666C29.8899 34.5214 29.0714 34.0834 28.26 33.6024C27.7 33.2793 27.14 32.9346 26.5871 32.5756C26.0342 32.2166 25.4527 31.8074 24.8783 31.3766L24.5408 31.1253C23.8056 30.577 23.1186 29.9669 22.4873 29.3016C22.1052 28.9131 21.7569 28.4927 21.4462 28.0451C21.256 27.7789 21.0833 27.5007 20.9293 27.2122C20.8862 27.126 20.8359 27.0327 20.7928 26.9322C20.6851 26.688 20.5846 26.4367 20.52 26.2142C20.2082 25.2193 20.0461 24.1836 20.0389 23.1411C20.0218 21.7303 20.1227 20.3205 20.3405 18.9265C20.3405 18.6823 20.4123 18.431 20.4482 18.2085C20.7468 16.4682 21.1374 14.745 21.6185 13.046C21.9775 11.7728 22.3868 10.5043 22.8463 9.24064L26.3789 10.0161C26.3214 11.1792 26.2496 12.3424 26.2066 13.5056C26.1276 15.2575 26.0701 16.995 26.0701 18.6895V19.4075C26.0701 20.4055 26.1347 21.382 26.2424 22.2795C26.2424 22.4016 26.2784 22.5308 26.2927 22.6529C26.3536 23.0971 26.4719 23.5315 26.6445 23.9453C26.6804 24.0171 26.6445 23.9453 26.6876 23.9884C26.7307 24.0314 26.6876 24.0243 26.7881 24.0889C26.8887 24.1535 27.0323 24.3402 27.2189 24.4981C28.1719 25.2715 29.1933 25.9564 30.2704 26.5444H30.3351C31.491 27.1906 32.7116 27.8297 33.9753 28.4256L34.241 28.5477C36.0073 29.3949 37.831 30.2206 39.6906 30.996C40.4086 31.2976 41.1266 31.5992 41.7943 31.8792C41.7943 31.8792 44.1278 32.5182 44.9535 34.1265C45.6213 35.4764 43.5822 36.7975 41.7513 37.6806Z" fill="#00639B"/>
<path id="Vector_6" opacity="0.2" d="M41.7513 37.6806C40.9187 38.0852 40.0627 38.44 39.188 38.7432C38.5562 38.5063 37.9387 38.2621 37.3284 38.0252C37.0197 37.896 36.7038 37.7739 36.4022 37.6375C35.2821 37.178 34.1836 36.6825 33.0922 36.1584C37.0269 34.2988 40.1071 36.1799 41.7513 37.6806Z" fill="#2F3033"/>
<path id="Vector_7" d="M16.1833 176.628L11.6527 174.984L14.1441 164.063L18.6819 165.707L16.1833 176.628Z" fill="#CEE5FF"/>
<path id="Vector_8" d="M51.9396 182.652H47.129L45.7577 171.509H50.5682L51.9396 182.652Z" fill="#CEE5FF"/>
<path id="Vector_9" d="M46.5116 182.092H52.3777C52.4731 182.093 52.5655 182.126 52.6398 182.186C52.714 182.246 52.7659 182.329 52.7869 182.422L53.785 186.73C53.8053 186.835 53.8019 186.943 53.775 187.047C53.7482 187.151 53.6985 187.247 53.6297 187.329C53.5609 187.411 53.4747 187.476 53.3773 187.52C53.2799 187.565 53.1739 187.587 53.067 187.585C51.1786 187.549 49.8 187.441 47.4235 187.441C45.9875 187.441 41.5502 187.592 39.5255 187.592C37.5007 187.592 37.2279 185.596 38.0895 185.438C41.7872 184.627 44.5515 183.506 45.7433 182.437C45.9497 182.233 46.2224 182.111 46.5116 182.092Z" fill="#2F3033"/>
<path id="Vector_10" d="M11.4876 174.065L16.6357 175.163C16.7289 175.185 16.8124 175.237 16.8734 175.311C16.9343 175.385 16.9694 175.477 16.9731 175.572L17.0449 179.952C17.0466 180.059 17.0248 180.164 16.9809 180.261C16.9371 180.357 16.8723 180.443 16.7912 180.512C16.7102 180.58 16.6149 180.63 16.5123 180.658C16.4096 180.685 16.3022 180.689 16.1977 180.67C14.3452 180.239 11.6815 179.55 9.34795 179.055C6.61955 178.466 4.92507 177.913 1.72279 177.231C-0.215807 176.815 -0.35222 174.747 0.49502 174.74C4.35068 174.74 6.68418 175.458 10.2742 174.208C10.6563 174.044 11.0777 173.994 11.4876 174.065Z" fill="#2F3033"/>
<path id="Vector_11" opacity="0.2" d="M14.1441 164.063L12.8589 169.692L17.3967 171.343L18.6819 165.714L14.1441 164.063Z" fill="#2F3033"/>
<path id="Vector_12" opacity="0.2" d="M50.5754 171.509H45.7577L46.4685 177.253H51.2791L50.5754 171.509Z" fill="#2F3033"/>
<path id="Vector_13" d="M11.5307 168.033L19.2277 170.791C19.2277 170.791 25.223 144.39 28.4109 129.75C29.8124 123.965 31.5407 118.265 33.5877 112.676C36.5027 104.462 39.9778 95.616 42.7852 88.7016C45.7506 81.4211 47.9548 76.2802 47.9548 76.2802L31.3547 72.92C31.3547 72.92 18.6963 109.358 15.8459 123.762C12.9164 138.739 11.5307 168.033 11.5307 168.033Z" fill="#2F3033"/>
<g id="Group" opacity="0.3">
<path id="Vector_14" d="M11.5307 168.033L19.2277 170.791C19.2277 170.791 25.223 144.39 28.4109 129.75C29.8124 123.965 31.5407 118.265 33.5877 112.676C36.5027 104.462 39.9778 95.616 42.7852 88.7016C45.7506 81.4211 47.9548 76.2802 47.9548 76.2802L31.3547 72.92C31.3547 72.92 18.6963 109.358 15.8459 123.762C12.9164 138.739 11.5307 168.033 11.5307 168.033Z" fill="white"/>
</g>
<path id="Vector_15" opacity="0.2" d="M33.5875 112.676C36.5026 104.462 39.9777 95.616 42.7851 88.7017L41.4999 84.7312C36.7826 89.1253 33.8173 104.268 33.5875 112.676Z" fill="#2F3033"/>
<path id="Vector_16" d="M40.3368 74.7366C40.3368 74.7366 37.3787 116.28 37.1992 130.403C36.9981 145.862 44.2284 176.14 44.2284 176.14H53.0455C53.0455 176.14 49.5201 148.82 50.6976 133.505C52.0043 116.373 56.6283 78.0322 56.6283 78.0322L40.3368 74.7366Z" fill="#2F3033"/>
<g id="Group_2" opacity="0.3">
<path id="Vector_17" d="M40.3368 74.7366C40.3368 74.7366 37.3787 116.28 37.1992 130.403C36.9981 145.862 44.2284 176.14 44.2284 176.14H53.0455C53.0455 176.14 49.5201 148.82 50.6976 133.505C52.0043 116.373 56.6283 78.0322 56.6283 78.0322L40.3368 74.7366Z" fill="white"/>
</g>
<path id="Vector_18" d="M43.18 176.334H53.5551L53.5264 173.232L42.6918 172.607L43.18 176.334Z" fill="#2F3033"/>
<path id="Vector_19" d="M10.5039 167.933L19.6943 171.121L20.6995 168.156L10.6475 164.494L10.5039 167.933Z" fill="#2F3033"/>
<path id="Vector_20" d="M44.9104 182.932C44.5829 182.959 44.2559 182.873 43.9842 182.688C43.8989 182.614 43.8323 182.52 43.7899 182.416C43.7475 182.311 43.7304 182.197 43.7401 182.085C43.7385 182.018 43.7558 181.952 43.7901 181.895C43.8245 181.838 43.8743 181.792 43.934 181.762C44.4581 181.489 46.0234 182.48 46.2029 182.551C46.2208 182.564 46.235 182.582 46.2439 182.602C46.2527 182.622 46.2559 182.644 46.2531 182.666C46.2505 182.689 46.2407 182.71 46.2252 182.727C46.2098 182.744 46.1893 182.755 46.1669 182.76C45.7558 182.863 45.3344 182.921 44.9104 182.932ZM44.1924 181.941C44.1453 181.929 44.0959 181.929 44.0489 181.941C44.013 181.941 43.9771 181.984 43.9771 182.07C43.9672 182.147 43.9765 182.226 44.004 182.298C44.0316 182.371 44.0766 182.436 44.135 182.487C44.6726 182.733 45.2842 182.764 45.8439 182.573C45.3375 182.256 44.774 182.042 44.1853 181.941H44.1924Z" fill="#00639B"/>
<path id="Vector_21" d="M46.1454 182.767H46.088C45.5854 182.494 44.6161 181.439 44.7094 180.907C44.7258 180.824 44.7704 180.748 44.8357 180.693C44.901 180.638 44.9831 180.607 45.0684 180.606C45.1553 180.595 45.2435 180.602 45.3274 180.627C45.4114 180.651 45.4895 180.693 45.5567 180.749C46.1167 181.209 46.2747 182.595 46.2747 182.659C46.2772 182.679 46.2738 182.699 46.2649 182.717C46.2559 182.735 46.2418 182.75 46.2244 182.76C46.213 182.768 46.1997 182.773 46.1859 182.774C46.172 182.775 46.158 182.773 46.1454 182.767ZM45.1546 180.843H45.0756C44.932 180.843 44.9176 180.929 44.9104 180.957C44.853 181.281 45.4777 182.078 45.9731 182.451C45.9342 181.902 45.7316 181.376 45.3915 180.943C45.3257 180.885 45.2424 180.849 45.1546 180.843Z" fill="#00639B"/>
<path id="Vector_22" d="M10.8845 174.61C10.0947 174.61 8.73053 174.495 8.28537 173.928C8.22136 173.846 8.17869 173.749 8.16115 173.647C8.14361 173.544 8.15174 173.438 8.18484 173.339C8.19935 173.28 8.22966 173.225 8.27259 173.181C8.31553 173.136 8.36951 173.104 8.42895 173.088C9.06797 172.887 10.7696 174.251 10.9563 174.409C10.976 174.424 10.9903 174.444 10.9968 174.468C11.0034 174.491 11.0017 174.516 10.9922 174.539C10.9856 174.561 10.9712 174.581 10.9515 174.594C10.9318 174.607 10.9081 174.613 10.8845 174.61ZM8.52948 173.296H8.45768C8.43384 173.302 8.4122 173.314 8.39556 173.332C8.37892 173.35 8.36803 173.373 8.36434 173.397C8.34071 173.461 8.33359 173.53 8.34363 173.598C8.35366 173.666 8.38054 173.73 8.42179 173.785C8.65873 174.108 9.42698 174.316 10.504 174.366C9.89368 173.856 8.91002 173.246 8.52948 173.296Z" fill="#00639B"/>
<path id="Vector_23" d="M10.8845 174.61C10.8725 174.617 10.8588 174.621 10.845 174.621C10.8311 174.621 10.8175 174.617 10.8055 174.61C10.2885 174.237 9.36949 172.973 9.56335 172.456C9.61361 172.334 9.73566 172.198 10.0444 172.234C10.158 172.246 10.268 172.281 10.3679 172.336C10.4678 172.392 10.5556 172.467 10.626 172.557C10.9479 173.159 11.0734 173.847 10.985 174.524C10.9849 174.544 10.9787 174.564 10.9671 174.581C10.9556 174.598 10.9393 174.61 10.9204 174.618L10.8845 174.61ZM9.90081 172.456C9.87528 172.457 9.85051 172.465 9.82905 172.479C9.8076 172.493 9.79022 172.512 9.77874 172.535C9.66386 172.844 10.267 173.813 10.7768 174.28C10.8327 173.732 10.7173 173.18 10.4465 172.7C10.3971 172.633 10.3337 172.577 10.2606 172.536C10.1875 172.495 10.1064 172.47 10.0229 172.464L9.90081 172.456Z" fill="#00639B"/>
<path id="Vector_24" d="M65.9981 37.2785C65.261 39.064 64.5837 40.8613 63.9662 42.6707C63.801 43.1518 63.6431 43.6256 63.4851 44.1067C62.9969 45.6073 62.5445 47.1079 62.1281 48.5942C61.9845 49.1183 61.8409 49.6425 61.7045 50.1594C61.4819 50.978 61.2737 51.7893 61.0726 52.5935C60.9649 53.0458 60.8572 53.491 60.7567 53.9289C60.5054 54.9916 60.2757 56.0327 60.0387 57.0594C59.8018 58.0862 59.6366 59.0124 59.4571 59.9314C59.2776 60.8505 59.0694 61.9346 58.9043 62.8968C58.7392 63.8589 58.5812 64.7851 58.4376 65.6898C58.294 66.5945 58.1288 67.6571 57.9996 68.5618C57.8345 69.7178 57.6837 70.8019 57.5545 71.7928C57.138 74.7725 56.8365 76.9624 56.6139 78.0035L31.3762 72.8913C31.3762 70.9096 31.3762 69.0069 31.4623 67.1473C31.5126 65.9195 31.57 64.7205 31.6562 63.5573C31.6993 62.7891 31.7567 62.0352 31.8213 61.2956C31.9219 60.1684 32.0295 59.077 32.1516 58.0144C32.288 56.8225 32.4388 55.6737 32.6111 54.568C32.9127 52.5217 33.2645 50.6261 33.6379 48.867C34.0974 46.713 34.5856 44.8103 35.0739 43.0871C35.6985 40.9331 36.3375 39.0807 36.9263 37.5657C37.6231 35.671 38.4832 33.8404 39.4968 32.0946C41.5563 31.9816 43.6209 31.996 45.6787 32.1376C46.1095 32.1376 46.5547 32.2166 46.9998 32.2597C50.6282 32.7704 54.2242 33.4896 57.7698 34.4137C58.4376 34.586 59.1197 34.7799 59.7803 34.9737C63.1046 36.0507 65.9981 37.2785 65.9981 37.2785Z" fill="#00639B"/>
<path id="Vector_25" d="M59.0193 22.1646C57.6766 25.4817 55.7811 31.6709 57.7556 34.4639C56.4752 35.3608 55.0159 35.9702 53.4779 36.2503C51.94 36.5303 50.3596 36.4745 48.8452 36.0866C45.887 35.4189 46.1383 33.3079 47.0215 32.2956C51.0494 32.152 51.5018 29.2728 51.3295 26.4582L59.0193 22.1646Z" fill="#CEE5FF"/>
<path id="Vector_26" opacity="0.2" d="M55.8887 23.9453L51.3509 26.4727C51.3931 27.1307 51.3811 27.7911 51.315 28.4472C52.8228 28.5333 55.1563 27.3271 55.623 25.8193C55.8261 25.2163 55.9162 24.581 55.8887 23.9453Z" fill="#2F3033"/>
<path id="Vector_27" d="M50.2596 10.1812C48.9456 11.6172 47.6317 15.2072 50.4965 15.1713C53.3613 15.1354 52.5141 7.71843 50.2596 10.1812Z" fill="#2F3033"/>
<path id="Vector_28" d="M61.2952 18.0863C59.5432 22.5236 58.7391 25.2089 55.7019 26.7669C51.1283 29.1076 46.2243 25.1514 46.6192 20.3049C46.9711 15.9036 49.7856 9.39133 54.7973 9.08259C55.9027 9.01697 57.0068 9.23154 58.0073 9.70642C59.0077 10.1813 59.872 10.9011 60.5201 11.7991C61.1682 12.6971 61.579 13.7441 61.7145 14.8432C61.85 15.9423 61.7057 17.0578 61.2952 18.0863Z" fill="#CEE5FF"/>
<path id="Vector_29" d="M61.9845 9.54943H58.7176L60.2828 12.5004C60.8141 12.5794 59.7587 14.3816 60.2182 14.3888C60.2182 14.3888 58.0642 18.309 59.4069 20.9585C64.2318 20.5707 67.6423 16.7797 65.4524 14.0441C66.8525 11.646 64.4041 9.86535 61.9845 9.54943Z" fill="#2F3033"/>
<path id="Vector_30" d="M61.8122 22.4303C61.4662 22.9115 61.0276 23.3188 60.5221 23.6283C60.0166 23.9377 59.4544 24.1432 58.8684 24.2324C57.3032 24.4622 56.7144 23.0047 57.296 21.6189C57.8345 20.3696 59.2921 18.7469 60.7927 19.1562C61.1192 19.2504 61.4173 19.4242 61.6602 19.662C61.903 19.8998 62.0831 20.1941 62.1841 20.5187C62.2852 20.8432 62.3041 21.1877 62.2392 21.5214C62.1743 21.855 62.0276 22.1673 61.8122 22.4303Z" fill="#CEE5FF"/>
<path id="Vector_31" d="M51.1283 16.2698C50.3202 17.2089 49.385 18.0305 48.3497 18.711C48.5475 18.9659 48.7968 19.1763 49.0813 19.3285C49.3658 19.4806 49.6792 19.5711 50.0011 19.5941L51.1283 16.2698Z" fill="#001D33"/>
<path id="Vector_32" d="M55.7523 16.1334C55.711 16.1254 55.6727 16.1065 55.6411 16.0787C55.6096 16.051 55.586 16.0153 55.5728 15.9754C55.4874 15.7018 55.3389 15.4521 55.1394 15.2463C54.9399 15.0406 54.6948 14.8845 54.4239 14.7907C54.3947 14.7832 54.3673 14.77 54.3432 14.7518C54.319 14.7337 54.2987 14.7109 54.2834 14.6849C54.2681 14.6589 54.258 14.6302 54.2538 14.6003C54.2496 14.5704 54.2513 14.5399 54.2588 14.5107C54.2664 14.4815 54.2796 14.454 54.2977 14.4299C54.3159 14.4058 54.3386 14.3855 54.3646 14.3702C54.3906 14.3548 54.4194 14.3448 54.4493 14.3405C54.4792 14.3363 54.5096 14.338 54.5388 14.3456C54.8779 14.4634 55.1845 14.6594 55.434 14.9175C55.6834 15.1757 55.8687 15.4889 55.9748 15.8318C55.9957 15.889 55.993 15.952 55.9675 16.0072C55.9419 16.0624 55.8955 16.1052 55.8384 16.1262C55.8101 16.1325 55.7812 16.1349 55.7523 16.1334Z" fill="#2F3033"/>
<path id="Vector_33" d="M48.5435 13.606C48.4987 13.5991 48.4578 13.5762 48.4287 13.5414C48.3862 13.4984 48.3623 13.4403 48.3623 13.3798C48.3623 13.3193 48.3862 13.2613 48.4287 13.2183C48.6715 12.9511 48.9751 12.7464 49.3138 12.6214C49.6525 12.4964 50.0163 12.4549 50.3745 12.5003C50.435 12.5125 50.4884 12.5478 50.5232 12.5988C50.5581 12.6497 50.5717 12.7123 50.5611 12.7731C50.549 12.8318 50.5144 12.8833 50.4648 12.9169C50.4152 12.9504 50.3544 12.9632 50.2955 12.9526C50.0114 12.913 49.7219 12.944 49.4526 13.0429C49.1833 13.1419 48.9426 13.3057 48.7518 13.5198C48.7284 13.552 48.6966 13.5771 48.6598 13.5923C48.6231 13.6075 48.5828 13.6123 48.5435 13.606Z" fill="#2F3033"/>
<path id="Vector_34" d="M49.4769 20.4701C49.813 21.2291 50.0937 22.0114 50.317 22.8108L50.7478 22.7606C52.7151 22.5164 53.548 21.7554 53.8783 20.9871C54.0318 20.6072 54.0909 20.1958 54.0506 19.788C54.0353 19.5574 53.987 19.3301 53.907 19.1131C52.9449 19.8311 51.1283 20.226 50.1447 20.384C49.7354 20.4486 49.4769 20.4701 49.4769 20.4701Z" fill="#2F3033"/>
<path id="Vector_35" d="M50.1446 20.384L50.4103 21.0661C52.2627 20.8363 53.5336 20.4199 54.0506 19.788C54.0353 19.5574 53.9869 19.3301 53.907 19.1131C52.9736 19.8598 51.1283 20.226 50.1446 20.384Z" fill="white"/>
<path id="Vector_36" d="M64.5693 10.5187C64.5693 10.5187 61.7547 6.16763 55.1348 5.89479C48.5148 5.62195 48.3138 10.0305 50.5539 11.5455L50.7478 10.8993C51.2841 11.5477 51.9587 12.0678 52.7223 12.4214V11.5455C53.6573 12.4087 54.733 13.1056 55.903 13.6061V12.5004C55.903 12.5004 57.6262 13.9364 61.209 14.3385C64.7919 14.7406 66.2063 13.283 64.5693 10.5187Z" fill="#2F3033"/>
<path id="Vector_37" d="M54.0578 17.2966C54.0217 17.2972 53.9863 17.2864 53.9567 17.2658C53.9271 17.2452 53.9047 17.2158 53.8926 17.1817C53.8677 17.0797 53.8207 16.9844 53.755 16.9025C53.6892 16.8207 53.6063 16.7542 53.5121 16.7078C53.3926 16.6584 53.2583 16.6584 53.1388 16.7078C53.0974 16.7296 53.0493 16.7351 53.0041 16.7231C52.9589 16.7111 52.9198 16.6826 52.8946 16.6432C52.8786 16.6029 52.8778 16.558 52.8924 16.5171C52.9069 16.4762 52.9357 16.4419 52.9736 16.4207C53.0735 16.362 53.185 16.3258 53.3003 16.3147C53.4157 16.3035 53.532 16.3176 53.6413 16.356C53.7904 16.4211 53.9224 16.5198 54.027 16.6444C54.1316 16.7689 54.206 16.916 54.2445 17.074C54.2588 17.1189 54.2556 17.1674 54.2356 17.21C54.2157 17.2526 54.1804 17.2861 54.1368 17.3038L54.0578 17.2966Z" fill="#2F3033"/>
<path id="Vector_38" d="M49.9795 16.2268C49.9436 16.2263 49.9088 16.2152 49.8793 16.1947C49.8499 16.1742 49.8273 16.1454 49.8144 16.1119C49.7894 16.0099 49.7424 15.9146 49.6767 15.8327C49.6109 15.7509 49.528 15.6844 49.4338 15.6381C49.3117 15.6026 49.1806 15.6154 49.0676 15.674C49.0255 15.6979 48.9758 15.7045 48.9289 15.6924C48.882 15.6804 48.8417 15.6506 48.8163 15.6093C48.7962 15.5676 48.7916 15.5201 48.8034 15.4753C48.8153 15.4305 48.8428 15.3915 48.8809 15.3652C48.9815 15.3083 49.093 15.2732 49.208 15.262C49.323 15.2509 49.4391 15.264 49.5487 15.3006C49.6978 15.3657 49.8297 15.4644 49.9344 15.5889C50.039 15.7135 50.1134 15.8605 50.1518 16.0186C50.1661 16.0634 50.163 16.112 50.143 16.1546C50.123 16.1972 50.0877 16.2307 50.0441 16.2484L49.9795 16.2268Z" fill="#2F3033"/>
<path id="Vector_39" d="M61.7692 35.3829C61.7692 35.3829 57.0304 49.9512 60.5773 63.3849L59.6654 64.2322C59.6654 64.2322 53.785 49.944 58.732 34.7583L61.7692 35.3829Z" fill="#2F3033"/>
<path id="Vector_40" d="M45.0756 32.0802C45.0756 32.0802 34.0902 46.1171 32.0367 59.1704L32.2377 56.1404C32.2377 56.1404 32.1659 44.4945 41.7871 31.9295L45.0756 32.0802Z" fill="#2F3033"/>
<path id="Vector_41" d="M60.247 62.0208L62.1066 65.2302L60.8716 69.4162C59.9869 67.2446 59.3813 64.9695 59.0694 62.6454L60.247 62.0208Z" fill="#2F3033"/>
<path id="Vector_42" d="M67.6065 74.6289L55.6662 69.6029L54.8979 79.6549C54.8979 79.6549 68.3532 79.9062 68.5399 79.9852C68.7266 80.0642 67.6065 74.6289 67.6065 74.6289Z" fill="#2F3033"/>
<path id="Vector_43" opacity="0.4" d="M67.6065 74.6289L55.6662 69.6029L54.8979 79.6549C54.8979 79.6549 68.3532 79.9062 68.5399 79.9852C68.7266 80.0642 67.6065 74.6289 67.6065 74.6289Z" fill="white"/>
<path id="Vector_44" d="M55.6517 79.0661L56.4415 70.4429L58.4663 67.2048L66.4504 74.1407L65.0647 78.901L55.6517 79.0661Z" fill="#F1F0F4"/>
<path id="Vector_45" opacity="0.7" d="M55.6517 79.0661L56.4415 70.4429L58.4663 67.2048L66.4504 74.1407L65.0647 78.901L55.6517 79.0661Z" fill="white"/>
<path id="Vector_46" d="M57.7412 66.2642L57.5976 77.3501L54.8979 79.6979L70.7585 86.3179L73.5013 83.4818L73.6162 73.4801L57.7412 66.2642Z" fill="#2F3033"/>
<path id="Vector_47" opacity="0.5" d="M57.7412 66.2642L57.5976 77.3501L54.8979 79.6979L70.7585 86.3179L73.5013 83.4818L73.6162 73.4801L57.7412 66.2642Z" fill="white"/>
<path id="Vector_48" d="M67.7141 77.2567L67.2833 82.1391L62.6019 79.3676C62.6019 79.3676 63.2553 75.0596 65.4739 75.4617L67.7141 77.2567Z" fill="#CEE5FF"/>
<path id="Vector_49" d="M64.397 86.0523L61.1804 82.2971L62.602 79.3677L67.2834 82.1392L64.397 86.0523Z" fill="#CEE5FF"/>
<path id="Vector_50" opacity="0.2" d="M63.4852 44.1068C62.997 45.6074 62.5446 47.108 62.1282 48.5943C61.9846 49.1184 61.841 49.6426 61.7045 50.1595C60.6993 48.0773 61.1804 44.5663 61.1804 44.5663L63.4852 44.1068Z" fill="#2F3033"/>
<path id="Vector_51" d="M68.9849 39.4613C70.422 40.9053 71.7335 42.469 72.9052 44.1355C74.6676 46.5981 76.2375 49.193 77.6009 51.897C78.5402 53.7114 79.3186 55.6046 79.9273 57.5549C80.1611 58.2931 80.301 59.0578 80.3437 59.8309C80.394 61.4536 78.9077 64.2179 76.9332 67.1043C75.8203 68.7485 74.5566 70.4358 73.3432 71.9795C70.6794 75.3613 68.3172 78.0466 68.3172 78.0466L64.7272 75.5336C64.7272 75.5336 66.5007 72.3026 68.3172 68.8131C69.2865 66.9679 70.263 65.0436 70.981 63.4927C71.4875 62.5517 71.8734 61.5506 72.1298 60.513C72.1398 60.1955 72.1157 59.8777 72.058 59.5653C71.7851 58.0503 67.3407 48.6158 61.2377 44.5663L63.3917 36.6683C64.8924 36.2446 66.9027 37.415 68.9849 39.4613Z" fill="#00639B"/>
</g>
</svg>
